<svg width="1964" height="660" viewBox="0 0 1964 660" fill="none" xmlns="http://www.w3.org/2000/svg">
<path d="M346.832 0.973863C324.732 6.07386 308.032 25.7739 308.032 47.0739C308.032 61.2739 314.232 73.7739 325.432 82.0739C333.832 88.1739 341.032 90.6739 351.932 91.2739C367.632 92.1739 382.232 86.8739 392.332 76.5739C421.032 47.4739 402.632 2.87386 360.832 0.173863C355.832 -0.226137 350.732 0.0738634 346.832 0.973863Z" fill="black"/>
<path d="M6.93248 9.37392C3.03248 11.7739 1.53248 13.6739 0.432481 17.4739C-1.06752 22.7739 1.03248 27.0739 11.5325 39.5739L21.4325 51.5739V184.574V317.574L11.4325 329.374C5.93248 335.774 1.03248 342.574 0.532481 344.274C-1.36752 350.874 2.83248 358.774 9.23248 360.574C11.7325 361.374 30.0325 361.574 65.4325 361.374C116.132 361.074 118.032 360.974 120.632 359.074C126.832 354.374 128.432 346.274 124.332 340.474C123.132 338.674 118.132 332.574 113.232 326.774L104.432 316.274L104.632 260.174L104.932 204.074L144.132 203.774L183.232 203.574L199.632 220.674C208.532 230.074 217.132 238.374 218.632 239.174C224.232 242.074 232.032 239.874 235.432 234.374C237.332 231.174 237.432 229.474 237.432 184.574C237.432 140.874 237.332 137.874 235.532 134.974C233.432 131.474 228.032 128.574 223.732 128.574C219.132 128.574 215.732 131.374 199.432 148.474L183.932 164.574H144.232H104.432V105.474V46.4739L147.232 46.7739C186.732 47.1739 190.432 47.2739 196.932 49.2739C213.332 54.0739 223.432 59.7739 240.932 73.9739C246.432 78.4739 252.032 82.9739 253.432 83.8739C256.732 86.1739 263.232 85.9739 267.132 83.5739C273.232 79.8739 273.432 78.6739 273.432 46.8739C273.432 19.8739 273.332 17.8739 271.432 14.7739C270.332 12.9739 268.032 10.6739 266.232 9.57392C263.032 7.57392 260.932 7.57392 136.432 7.57392C15.5325 7.57392 9.83248 7.67392 6.93248 9.37392Z" fill="black"/>
<path d="M1005.93 41.4738C1003.63 42.4738 1001.03 44.5738 999.932 46.1738C996.432 51.5738 974.932 72.8738 967.132 78.6738C957.432 85.9738 945.832 92.2738 931.732 98.0738C919.132 103.274 916.532 104.974 914.132 109.674C911.832 113.974 912.332 121.574 915.132 125.374C918.332 129.874 924.932 132.574 932.632 132.574H939.332L939.732 225.274C940.032 310.774 940.132 318.574 941.832 324.074C947.432 342.774 961.432 357.374 979.332 362.974C989.832 366.274 997.532 366.974 1008.93 365.574C1033.53 362.674 1058.03 351.574 1076.13 335.174C1084.63 327.374 1085.63 321.174 1079.43 314.574C1075.53 310.374 1069.03 310.374 1060.83 314.574C1049.33 320.574 1038.03 319.574 1030.83 312.074C1022.53 303.574 1023.03 308.674 1022.63 215.274L1022.33 132.574H1042.93C1065.13 132.574 1067.53 132.074 1070.73 127.174C1073.43 123.174 1073.83 117.574 1071.73 113.574C1068.23 106.874 1063.23 105.674 1037.23 105.574H1022.43V77.0738C1022.43 57.7738 1022.03 47.8738 1021.23 46.1738C1018.83 40.6738 1012.03 38.6738 1005.93 41.4738Z" fill="black"/>
<path d="M609.432 106.174C594.632 110.274 580.132 120.674 567.432 136.374L559.932 145.674L559.432 131.874C558.832 115.774 557.832 113.074 550.632 108.474C547.432 106.474 544.832 105.574 541.732 105.574C539.132 105.574 527.432 108.674 513.132 112.974C499.832 117.074 483.332 122.074 476.432 124.074C469.532 126.074 462.532 128.674 460.832 129.674C454.832 133.274 452.632 142.774 456.232 149.274C457.132 150.974 462.132 156.074 467.232 160.574L476.432 168.674V242.874V317.074L465.932 329.474C455.132 342.274 453.532 345.374 454.932 351.374C455.632 354.774 459.732 358.974 463.732 360.474C465.632 361.174 484.132 361.574 518.032 361.574C573.932 361.574 573.932 361.574 578.332 356.074C584.032 348.774 582.732 344.574 569.932 329.474L559.432 317.074V245.274V173.374L563.032 167.974C569.332 158.474 577.032 153.774 583.332 155.574C588.232 156.974 590.132 158.374 602.532 170.074C609.232 176.274 616.332 182.274 618.332 183.274C621.032 184.574 624.232 185.074 630.932 185.074C638.532 184.974 640.832 184.574 645.632 182.374C661.032 175.274 671.232 155.574 668.532 138.374C666.532 126.174 657.432 114.674 644.932 108.474C638.332 105.274 637.332 105.074 626.432 104.874C618.532 104.674 613.232 105.074 609.432 106.174Z" fill="black"/>
<path d="M354.432 113.674C340.432 118.074 324.232 122.974 318.632 124.574C312.932 126.174 306.732 128.474 304.932 129.574C298.932 133.274 296.732 142.074 299.932 148.974C300.832 150.774 305.732 155.874 310.932 160.474L320.432 168.674V242.774V316.874L310.632 328.474C305.232 334.874 300.232 341.074 299.632 342.274C296.432 348.174 299.632 356.874 305.832 359.674C309.632 361.374 313.432 361.574 361.732 361.574C418.832 361.574 418.632 361.574 422.432 355.374C424.432 352.074 425.132 345.474 423.832 342.074C423.432 341.174 418.732 335.174 413.332 328.774L403.432 317.074V218.574C403.432 123.574 403.332 119.974 401.432 115.874C400.132 112.974 398.032 110.674 394.832 108.574C387.632 104.074 384.132 104.474 354.432 113.674Z" fill="black"/>
<path d="M764.732 107.074C739.132 111.074 718.732 120.874 704.932 135.774C691.832 149.974 686.932 166.874 689.332 188.974C691.332 206.174 696.632 218.074 708.132 230.574C718.132 241.374 730.332 248.974 752.932 258.574C779.332 269.774 798.032 281.374 803.332 289.874C804.532 291.774 806.232 296.374 807.132 300.074C808.532 305.874 808.632 307.874 807.632 313.774C804.632 331.074 794.332 341.574 778.732 343.174C754.132 345.674 731.832 326.474 716.532 289.474C712.532 279.974 710.032 277.474 703.732 276.874C699.832 276.474 698.232 276.874 695.432 278.774C688.632 283.374 688.332 284.774 688.632 315.074C689.032 349.074 688.232 347.474 706.832 354.074C720.032 358.874 730.132 361.374 741.932 363.074C775.232 367.674 809.832 364.974 834.432 355.874C871.832 341.974 892.432 316.874 892.432 284.874C892.432 249.974 874.332 226.174 833.632 207.674C802.332 193.374 791.732 187.074 782.632 177.174C775.132 168.974 772.132 157.774 774.332 146.074C775.832 137.874 779.132 133.374 785.832 130.074C797.432 124.374 810.632 125.974 823.732 134.574C833.532 140.974 849.332 157.774 857.432 170.374C862.032 177.574 864.932 180.974 867.232 182.074C871.832 184.374 876.932 183.274 880.632 179.374L883.432 176.374V152.874C883.432 122.274 883.632 122.774 865.432 117.174C849.932 112.574 833.132 108.674 821.132 107.074C806.932 105.274 776.532 105.274 764.732 107.074Z" fill="black"/>
<path d="M1397.43 48.674C1381.33 50.774 1360.63 59.074 1348.63 68.074C1328.83 82.974 1323.63 104.974 1333.13 133.874C1337.83 148.474 1346.33 158.174 1358.13 162.574C1379.93 170.774 1417.73 160.474 1437.03 141.174C1445.13 133.074 1448.73 126.474 1451.03 115.574C1455.73 93.574 1445.33 64.174 1429.43 54.074C1421.53 49.174 1409.23 47.074 1397.43 48.674Z" fill="black"/>
<path d="M1201.43 88.2739C1183.83 91.0739 1162.93 97.4739 1147.13 104.974C1117.73 118.974 1095.33 141.774 1084.63 168.274C1077.33 186.574 1075.03 211.474 1078.83 232.574C1082.33 252.374 1092.13 275.874 1103.73 292.174C1111.43 303.174 1132.43 324.374 1155.93 345.074C1194.63 379.174 1205.33 392.474 1209.93 411.974C1214.43 431.074 1209.63 448.674 1196.03 462.074C1177.53 480.474 1145.43 485.274 1126.23 472.574C1114.43 464.774 1103.73 448.174 1099.43 431.174C1096.23 418.574 1097.03 411.874 1103.43 395.874C1108.53 383.274 1107.13 375.574 1099.13 371.674C1083.23 363.974 1051.93 378.874 1032.13 403.574C1020.63 417.974 1013.23 436.074 1009.23 459.074C1004.73 485.674 1009.53 517.674 1023.53 552.574C1044.43 604.974 1084.53 639.974 1132.43 647.874C1167.73 653.774 1204.43 647.874 1239.93 630.674C1294.53 604.174 1326.93 556.674 1332.63 494.774C1335.13 467.074 1328.03 429.674 1315.33 404.374C1303.03 379.874 1285.33 361.574 1232.83 318.874C1195.63 288.674 1185.13 276.974 1178.33 257.474C1170.63 235.874 1172.63 219.774 1184.43 207.574C1189.53 202.374 1197.13 198.074 1204.93 195.974C1215.53 193.074 1222.73 194.974 1231.23 202.974C1242.03 213.074 1247.43 233.874 1243.43 249.374C1242.13 254.274 1242.23 254.974 1243.93 258.174C1246.23 262.474 1253.73 267.074 1261.13 268.674C1268.83 270.474 1273.23 268.874 1277.83 262.774C1279.83 260.174 1283.73 255.174 1286.53 251.574C1289.33 247.974 1293.83 240.574 1296.53 235.074C1312.03 203.474 1311.93 168.474 1296.43 137.574C1284.03 112.674 1259.83 93.9739 1233.63 88.9739C1226.93 87.6739 1207.63 87.2739 1201.43 88.2739Z" fill="black"/>
<path d="M1665.03 102.574C1645.93 105.574 1627.43 113.874 1614.13 125.474C1606.73 131.774 1601.43 138.474 1594.63 149.974C1587.83 161.374 1584.23 164.574 1578.13 164.574C1573.83 164.574 1571.03 161.474 1570.03 155.874C1569.23 150.774 1566.13 145.974 1562.23 143.574C1554.03 138.574 1533.63 143.274 1523.13 152.574C1515.43 159.374 1510.43 174.074 1508.43 196.074C1507.83 202.674 1507.13 233.074 1506.73 263.574L1506.13 319.074L1503.13 327.574C1494.43 352.474 1483.03 363.274 1464.43 364.374C1457.33 364.774 1455.93 364.574 1450.93 362.174C1439.93 356.774 1432.83 343.574 1430.33 323.674C1429.73 318.974 1429.33 300.474 1429.33 282.574C1429.43 246.074 1428.53 233.474 1424.93 220.974C1417.33 194.874 1404.73 186.874 1386.43 196.674C1369.53 205.674 1359.13 226.274 1354.03 260.574C1350.83 281.574 1350.23 292.874 1349.73 335.574C1349.33 370.874 1349.53 382.274 1350.83 396.074C1357.53 466.574 1378.43 514.074 1409.33 529.374C1416.23 532.774 1417.53 533.074 1427.53 533.374C1436.93 533.774 1439.53 533.474 1447.63 531.174C1467.53 525.474 1484.93 512.774 1496.23 495.774C1498.13 492.974 1499.73 490.574 1499.83 490.574C1499.93 490.574 1499.93 509.574 1499.93 532.774C1499.93 579.574 1500.53 586.174 1506.53 603.974C1511.83 619.974 1519.03 629.174 1530.33 634.474C1541.33 639.574 1561.53 637.374 1573.73 629.674C1589.43 619.574 1597.43 584.474 1594.53 537.674C1592.73 508.874 1586.83 454.174 1581.43 417.074C1578.93 400.174 1580.13 394.174 1586.43 391.574C1592.83 388.974 1595.93 392.574 1599.23 406.574C1601.73 416.774 1606.03 427.774 1610.33 434.474C1614.23 440.474 1622.83 448.674 1628.03 451.374C1648.13 461.574 1677.83 457.274 1702.43 440.574C1727.53 423.574 1750.13 391.274 1762.43 354.974L1766.63 342.774L1772.73 340.574C1800.43 330.574 1820.63 312.574 1832.53 287.074C1841.33 268.374 1847.83 246.174 1851.03 223.974C1853.03 210.074 1852.43 207.774 1845.53 203.774C1841.73 201.574 1839.73 201.074 1833.93 201.074C1823.23 201.074 1820.73 202.974 1816.83 213.774C1809.03 235.574 1798.73 248.674 1783.93 255.674L1777.93 258.574L1776.73 244.874C1771.43 184.174 1753.13 139.774 1724.63 118.774C1716.03 112.374 1705.53 107.174 1696.33 104.574C1687.73 102.174 1673.33 101.274 1665.03 102.574ZM1660.03 215.574C1692.23 229.774 1688.33 292.974 1654.23 312.374C1642.63 318.974 1627.73 320.774 1619.13 316.674C1598.23 306.574 1590.43 269.374 1603.53 241.874C1607.73 233.074 1616.73 223.674 1625.13 219.374C1631.13 216.274 1634.13 215.274 1642.93 213.174C1646.53 212.374 1655.63 213.574 1660.03 215.574Z" fill="black"/>
<path d="M1717.93 485.574C1680.63 487.374 1648.23 491.374 1610.53 498.674L1605.13 499.774L1605.83 514.374C1606.93 537.674 1608.53 563.974 1608.93 564.474C1609.13 564.674 1612.13 564.274 1615.63 563.674C1636.93 559.974 1666.93 557.074 1707.93 554.574C1744.03 552.374 1767.93 550.074 1802.43 545.474C1843.13 540.074 1857.23 537.674 1862.43 535.474C1868.53 532.874 1876.43 524.574 1878.33 518.774C1879.63 515.074 1879.53 514.474 1877.43 511.374C1873.53 505.774 1869.13 501.474 1865.43 499.874C1851.93 493.974 1839.13 491.274 1807.43 487.574C1787.43 485.174 1744.43 484.174 1717.93 485.574Z" fill="black"/>
<path d="M1920.63 495.674C1909.73 497.774 1899.73 505.174 1895.33 514.274C1888.63 528.174 1894.13 546.674 1907.43 555.074C1917.73 561.474 1934.03 562.474 1944.23 557.174C1954.73 551.774 1960.33 544.574 1962.53 533.374C1965.63 517.874 1953.73 500.474 1936.93 496.074C1930.43 494.474 1927.23 494.374 1920.63 495.674Z" fill="black"/>
<path d="M1470.43 531.174C1417.33 552.874 1372.83 581.474 1342.43 613.274C1331.13 625.074 1322.43 638.774 1322.43 644.774C1322.43 650.274 1325.23 656.374 1328.53 658.074C1335.63 661.774 1342.33 659.374 1365.93 644.374C1402.23 621.374 1439.83 603.074 1477.83 589.974L1488.63 586.274L1488.03 570.674C1486.23 527.274 1486.13 525.574 1485.03 525.574C1484.43 525.674 1477.83 528.174 1470.43 531.174Z" fill="black"/>
</svg>
