<svg width="387" height="466" viewBox="0 0 387 466" fill="none" xmlns="http://www.w3.org/2000/svg">
<path d="M73.8394 0L44.9533 55.2268L65.0372 66.7377L279.266 84.1982L314.847 54.4507L274.927 61.3056L292.655 14.8737L73.8394 0ZM314.723 17.5898L341.749 52.8987L329.476 185.986L332.947 341.319L387 397.322L371.999 331.102L378.818 185.081L347.452 43.1985L314.723 17.5898ZM313.235 78.5074L270.34 116.532L69.0044 97.5199L27.7208 154.687L11.1081 315.84L225.833 352.184L9.02537 336.146L0 423.707L242.073 458.24L252.983 178.226L313.235 78.5074ZM320.797 102.823L274.679 185.986L266.992 426.423L311.499 348.045L311.871 185.986L320.797 102.823ZM325.261 362.919L266.992 466L382.041 426.423L325.261 362.919Z" fill="#66A792"/>
</svg>